# xmcd
#
# Track frame offsets: 
#        150
#        11967
#        23312
#        32645
#        46415
#        59915
#        71575
#        84657
#        94827
#        105890
#        115672
#        127155
#        143295
#        154542
#        166112
#        176970
#        187510
#        199585
#        210905
#        220947
#        232585
#        245637
#        256550
#        268757
#        279310
#
# Disc length: 3899 seconds
#
# Revision: 2
# Processed by: cddbd v1.5.2PL0 Copyright (c) Steve Scherf et al.
# Submitted via: ExactAudioCopyFreeDBPlugin 1.0
#
DISCID=440f3919
DTITLE=Maxine Brown - 25 All-Time Greatest Hits
DYEAR=2002
DGENRE=Soul
TTITLE0=Oh No Not My Baby
TTITLE1=Yesterday's Kisses
TTITLE2=One Step at a Time
TTITLE3=Coming Back to You
TTITLE4=One in a Million
TTITLE5=All in My Mind
TTITLE6=Gotta Find a Way
TTITLE7=Little Girl Lost
TTITLE8=I Wonder What My Baby's Doing Tonight
TTITLE9=If You Gotta Make a Fool of Somebody
TTITLE10=Funny
TTITLE11=Ask Me
TTITLE12=You Upset My Soul
TTITLE13=It's Gonna Be Alright
TTITLE14=You're in Love
TTITLE15=Let Me Give You My Lovin'
TTITLE16=Anything You Do is Alright
TTITLE17=Baby Cakes
TTITLE18=Put Yourself in My Place
TTITLE19=I Cry Alone
TTITLE20=The Secret of Livin'
TTITLE21=I Don't Need You No More
TTITLE22=Soul Serenade
TTITLE23=Slipping Through My Fingers
TTITLE24=Since I Found You
EXTD=YEAR: 2002
EXTT0=
EXTT1=
EXTT2=
EXTT3=
EXTT4=
EXTT5=
EXTT6=
EXTT7=
EXTT8=
EXTT9=
EXTT10=
EXTT11=
EXTT12=
EXTT13=
EXTT14=
EXTT15=
EXTT16=
EXTT17=
EXTT18=
EXTT19=
EXTT20=
EXTT21=
EXTT22=
EXTT23=
EXTT24=
PLAYORDER=
